<?xml version="1.0" encoding="utf-8"?>
<!-- Generator: Adobe Illustrator 22.1.0, SVG Export Plug-In . SVG Version: 6.00 Build 0)  -->
<svg height="250" viewBox="0 0 250 250" width="250" xmlns="http://www.w3.org/2000/svg"><g fill="none" fill-rule="evenodd"><circle cx="125" cy="125" fill="#eee" r="125"/><g transform="translate(52.845528 52.845528)"><path d="m89.6427272 92.2797755h-37.9204919v-37.9204919c0-10.0979708 3.9755921-19.6803134 11.1078853-26.8126066 7.1322932-7.1322931 16.7146358-11.1078853 26.8126066-11.1078853s19.6803138 3.9755922 26.8126068 11.1078853c7.132293 7.1322932 11.107885 16.7146358 11.107885 26.8126066 0 10.1001292-3.977349 19.6869349-11.107575 26.8122965-7.132551 7.1325508-16.7148704 11.1081954-26.8129168 11.1081954zm-38.1307166 15.6677085h38.5122275c14.3825409 0 28.0188369-5.656069 38.1661849-15.8077643 10.15357-10.148585 15.811588-23.7851327 15.811588-38.1636798 0-14.3741681-5.658045-28.0104557-15.812631-38.1647227-10.149086-10.15343448-23.786068-15.8113172-38.1651419-15.8113172-14.3791798 0-28.01613 5.65795705-38.1657681 15.8119432-10.1513656 10.1510472-15.8074085 23.7867317-15.8074085 38.1640967v38.51106h-36.0510615v15.4603841h36.0510615v36.054527h15.4609491z" fill="#fff"/><path d="m15.4107415 128.843904v15.410742h-15.4107415v-15.410742zm81.8537745-96.0013401c5.565539 0 10.105404 4.5389214 10.105404 10.1075056 0 5.5643814-4.539865 10.1033029-10.105404 10.1033029-5.5655387 0-10.1054042-4.5389215-10.1054042-10.1033029 0-5.5685842 4.5398655-10.1075056 10.1054042-10.1075056z" fill="#eee"/></g></g></svg>