<?xml version="1.0" encoding="UTF-8"?>
<svg width="1939px" height="1159px" viewBox="0 0 1939 1159" version="1.1" xmlns="http://www.w3.org/2000/svg" xmlns:xlink="http://www.w3.org/1999/xlink">
    <title>Slice 1</title>
    <g id="Page-1" stroke="none" stroke-width="1" fill="none" fill-rule="evenodd">
        <g id="Peixe_fundo-branco">
            <polygon id="Path-2" stroke="#979797" fill="#53A318" points="816 583.84478 1152.17187 202.93194 1659.75 167.921875 1835.01563 795.75 1303.76562 1029.1875 1072.57812 885.5"></polygon>
            <path d="M1540.87223,614.590193 C1579.7121,575.41292 1579.70356,511.527188 1540.88078,472.370026 C1502.05799,433.212864 1438.71781,433.204245 1399.87509,472.378645 C1361.0523,511.535807 1361.0637,575.421539 1399.88648,614.578701 C1438.70926,653.735863 1502.04945,653.747355 1540.87223,614.590193 Z M120.853394,706 L0,584.10685 L120.853394,462.210827 L241.706788,584.10685 L120.853394,706 Z" id="Shape" fill="#A9D18C"></path>
            <path d="M1353.86715,956.059506 C1252.2849,956.048186 1156.81067,916.883301 1085.00573,845.768561 L816.152879,579.499966 L1085.0143,313.222884 C1156.81067,242.119461 1252.2849,202.954576 1353.83573,202.93194 C1455.44655,202.954576 1550.93221,242.12795 1622.71715,313.222884 C1694.51352,384.329136 1734.06709,478.89697 1734.08994,579.468843 C1734.07851,680.094474 1694.53352,774.673627 1622.73715,845.777049 C1550.91221,916.914425 1455.42655,956.067992 1353.86715,956.059506 Z M1939,579.460355 C1938.96,424.662573 1878.10265,279.153791 1767.61263,169.722992 C1657.12832,60.3035114 1510.19589,0.0226353911 1353.83573,0 C1197.53556,0.0226353911 1050.60312,60.3035114 940.121678,169.722992 L671.260256,436.000075 L407.904051,175.175292 L263,318.678013 L526.364776,579.499966 L263,840.336067 L407.89548,983.835958 L671.260256,723.002687 L940.110251,989.268452 C1050.61455,1098.70774 1197.54699,1158.99996 1353.83573,1158.99996 C1510.13589,1159.04237 1657.08833,1098.7615 1767.63263,989.27977 C1878.1255,879.848972 1938.98,734.317554 1939,579.460355 Z" id="Shape" fill="#FFFF"></path>
        </g>
    </g>
</svg>