<svg width="1982" height="1159" viewBox="0 0 1982 1159" fill="none" xmlns="http://www.w3.org/2000/svg">
<path fill-rule="evenodd" clip-rule="evenodd" d="M1147.9 583.845L804.277 202.932L285.443 167.922L106.29 795.75L649.321 1029.19L885.636 885.5L1147.9 583.845Z" fill="white" stroke="#979797"/>
<path fill-rule="evenodd" clip-rule="evenodd" d="M406.957 614.59C367.256 575.413 367.264 511.527 406.948 472.37C446.632 433.213 511.377 433.204 551.081 472.379C590.764 511.536 590.753 575.422 551.069 614.579C511.385 653.736 446.641 653.747 406.957 614.59ZM1858.47 706L1982 584.107L1858.47 462.211L1734.93 584.107L1858.47 706Z" fill="#A9D18C"/>
<path fill-rule="evenodd" clip-rule="evenodd" d="M598.109 956.06C701.944 956.048 799.535 916.883 872.933 845.769L1147.75 579.5L872.924 313.223C799.535 242.119 701.944 202.955 598.141 202.932C494.277 202.955 396.674 242.128 323.297 313.223C249.908 384.329 209.478 478.897 209.454 579.469C209.466 680.095 249.888 774.674 323.276 845.777C396.694 916.914 494.297 956.068 598.109 956.06ZM-1.85966e-05 579.46C0.0408685 424.663 62.2478 279.154 175.188 169.723C288.123 60.3035 438.313 0.0226354 598.141 0C757.907 0.0226354 908.098 60.3035 1021.03 169.723L1295.85 436L1565.05 175.175L1713.17 318.678L1443.96 579.5L1713.17 840.336L1565.06 983.836L1295.85 723.003L1021.04 989.268C908.087 1098.71 757.896 1159 598.141 1159C438.375 1159.04 288.163 1098.76 175.168 989.28C62.2244 879.849 0.0204249 734.318 -1.85966e-05 579.46Z" fill="#53A318"/>
</svg>
